<?xml version="1.0" encoding="UTF-8" standalone="no"?>
<!-- Created with Inkscape (http://www.inkscape.org/) -->

<svg
   width="1000"
   height="1000"
   viewBox="0 0 264.58333 264.58333"
   version="1.1"
   id="svg1"
   sodipodi:docname="grano1.svg"
   inkscape:version="1.3.1 (9b9bdc1480, 2023-11-25, custom)"
   xmlns:inkscape="http://www.inkscape.org/namespaces/inkscape"
   xmlns:sodipodi="http://sodipodi.sourceforge.net/DTD/sodipodi-0.dtd"
   xmlns="http://www.w3.org/2000/svg"
   xmlns:svg="http://www.w3.org/2000/svg">
  <sodipodi:namedview
     id="namedview1"
     pagecolor="#505050"
     bordercolor="#eeeeee"
     borderopacity="1"
     inkscape:showpageshadow="0"
     inkscape:pageopacity="0"
     inkscape:pagecheckerboard="0"
     inkscape:deskcolor="#525252"
     inkscape:document-units="mm"
     inkscape:zoom="0.48252499"
     inkscape:cx="389.61713"
     inkscape:cy="520.18032"
     inkscape:window-width="1920"
     inkscape:window-height="969"
     inkscape:window-x="0"
     inkscape:window-y="0"
     inkscape:window-maximized="1"
     inkscape:current-layer="layer2" />
  <defs
     id="defs1" />
  <g
     inkscape:groupmode="layer"
     id="layer2"
     inkscape:label="Diseño">
    <g
       id="g7"
       style="display:inline"
       transform="matrix(5.9535732,-7.0859108,7.0859108,5.9535732,-2725.455,638.27764)"
       inkscape:label="Centro">
      <ellipse
         style="display:inline;fill:#9e7665;fill-opacity:1;stroke:#9e7665;stroke-width:0.4;stroke-dasharray:none;stroke-opacity:1"
         id="ellipse6"
         cx="307.00989"
         cy="-69.767952"
         rx="8.8134766"
         ry="12.476044"
         transform="matrix(0.89131337,0.45338778,0.45338778,-0.89131337,0,0)" />
      <path
         style="display:inline;fill:#584f49"
         d="m 235.87844,213.38204 c -3.40817,-0.32509 -6.01982,-3.03697 -6.70128,-6.95848 -0.21246,-1.22262 -0.13791,-3.94057 0.14243,-5.19246 0.597,-2.66603 1.718,-5.07035 3.34636,-7.1773 3.1853,-4.12149 7.726,-6.23201 11.36679,-5.28328 2.28675,0.59589 4.12305,2.20765 5.03644,4.42059 2.06938,5.01369 0.2157,12.01675 -4.36859,16.50417 -2.1032,2.05875 -4.77714,3.46307 -6.94464,3.64722 -0.36124,0.0307 -0.76667,0.0679 -0.90094,0.0826 -0.13428,0.0147 -0.57373,-0.005 -0.97657,-0.0431 z m 2.83204,-1.45831 c 0.40283,-0.11129 1.21582,-0.43964 1.80664,-0.72967 3.79336,-1.86214 6.92112,-6.15835 7.92873,-10.89069 0.27047,-1.27029 0.24359,-4.25183 -0.048,-5.32227 -0.31885,-1.17058 -1.00768,-2.49124 -1.66308,-3.18852 l -0.55689,-0.59248 -0.79009,0.58582 c -2.04456,1.51595 -3.25529,3.30671 -3.97594,5.88073 -0.14286,0.51025 -0.54512,2.12856 -0.89391,3.59624 -0.62707,2.63863 -1.15603,4.59393 -1.33184,4.92311 -0.11927,0.22333 -0.50381,0.31378 -0.75728,0.17812 -0.41409,-0.22161 -0.4295,-0.42612 -0.11271,-1.4956 0.16304,-0.55038 0.60645,-2.29708 0.98536,-3.88156 0.88763,-3.71175 1.18539,-4.73062 1.70476,-5.83335 0.78529,-1.66735 2.04291,-3.21878 3.44719,-4.25255 0.69596,-0.51234 0.71334,-0.47669 -0.4207,-0.8629 -0.9416,-0.32068 -2.55422,-0.32241 -3.75976,-0.004 -3.36785,0.88939 -6.73212,3.98836 -8.55101,7.87668 -1.84463,3.94337 -1.98851,8.38136 -0.3625,11.18164 0.48019,0.82697 1.71639,2.09696 1.95508,2.00852 0.0942,-0.0349 0.50981,-0.2669 0.92352,-0.51552 0.90624,-0.54461 1.83552,-1.36612 2.5239,-2.23122 0.47484,-0.59674 0.532,-0.6373 0.85931,-0.6097 0.2634,0.0222 0.38763,0.0958 0.49931,0.29565 0.13642,0.24416 0.13265,0.2963 -0.0458,0.63267 -0.41704,0.7863 -2.65656,2.81982 -3.39794,3.0854 -0.2213,0.0793 0.0148,0.1824 0.72931,0.3185 0.9263,0.17645 2.35043,0.11051 3.30428,-0.153 z"
         id="path6"
         sodipodi:nodetypes="cssssssssccssssscsssssssssscssssssscssss" />
    </g>
  </g>
</svg>
